<svg width="81" height="16" viewBox="0 0 81 16" fill="none" xmlns="http://www.w3.org/2000/svg">
<path d="M19.232 13H17.78V4.072H19.232V13ZM20.0597 10.024C20.0597 8.176 21.3917 6.904 23.2277 6.904C25.0637 6.904 26.3957 8.176 26.3957 10.024C26.3957 11.872 25.0637 13.144 23.2277 13.144C21.3917 13.144 20.0597 11.872 20.0597 10.024ZM21.5237 10.024C21.5237 11.104 22.2197 11.836 23.2277 11.836C24.2357 11.836 24.9317 11.104 24.9317 10.024C24.9317 8.944 24.2357 8.212 23.2277 8.212C22.2197 8.212 21.5237 8.944 21.5237 10.024ZM28.5522 13H27.1962V4.072H28.6602V7.936C29.0442 7.276 29.8362 6.88 30.7362 6.88C32.4282 6.88 33.4602 8.2 33.4602 10.072C33.4602 11.896 32.3442 13.156 30.6402 13.156C29.7522 13.156 28.9962 12.76 28.6482 12.076L28.5522 13ZM28.6722 10.012C28.6722 11.08 29.3322 11.812 30.3402 11.812C31.3722 11.812 31.9842 11.068 31.9842 10.012C31.9842 8.956 31.3722 8.2 30.3402 8.2C29.3322 8.2 28.6722 8.944 28.6722 10.012ZM36.9178 13.156C35.1538 13.156 33.9178 11.872 33.9178 10.036C33.9178 8.176 35.1298 6.892 36.8698 6.892C38.6458 6.892 39.7738 8.08 39.7738 9.928V10.372L35.3098 10.384C35.4178 11.428 35.9698 11.956 36.9418 11.956C37.7458 11.956 38.2738 11.644 38.4418 11.08H39.7978C39.5458 12.376 38.4658 13.156 36.9178 13.156ZM36.8818 8.092C36.0178 8.092 35.4898 8.56 35.3458 9.448H38.3218C38.3218 8.632 37.7578 8.092 36.8818 8.092ZM42.3015 13H41.1735V8.08H40.0215V7.132H41.1735V5.296H42.3015V7.132H43.4535V8.08H42.3015V13ZM45.2338 12.988H44.1058V4.168H45.2338V8.032C45.6058 7.396 46.3138 6.964 47.2258 6.964C48.7258 6.964 49.4458 7.912 49.4458 9.412V13H48.3178V9.664C48.3178 8.476 47.7538 7.996 46.9138 7.996C45.8218 7.996 45.2338 8.788 45.2338 9.796V12.988ZM54.0082 7.084V8.116H53.5042C52.4362 8.116 51.7762 8.764 51.7762 9.892V13H50.6482V7.144H51.7042L51.7762 8.032C52.0162 7.42 52.6042 7.012 53.4082 7.012C53.6122 7.012 53.7802 7.036 54.0082 7.084ZM54.1112 10.06C54.1112 8.248 55.4072 6.976 57.1712 6.976C58.9232 6.976 60.2192 8.248 60.2192 10.06C60.2192 11.872 58.9232 13.144 57.1712 13.144C55.4072 13.144 54.1112 11.872 54.1112 10.06ZM55.2512 10.06C55.2512 11.284 56.0312 12.136 57.1712 12.136C58.2992 12.136 59.0912 11.284 59.0912 10.06C59.0912 8.836 58.2992 7.984 57.1712 7.984C56.0312 7.984 55.2512 8.836 55.2512 10.06ZM65.0232 7.132H66.1392V13H65.1312L65.0112 12.112C64.6752 12.724 63.8952 13.144 63.0312 13.144C61.6632 13.144 60.8952 12.22 60.8952 10.78V7.132H62.0232V10.408C62.0232 11.668 62.5632 12.148 63.4272 12.148C64.4592 12.148 65.0232 11.488 65.0232 10.228V7.132ZM67.0438 9.916C67.0438 8.26 68.1118 6.964 69.8158 6.964C70.7638 6.964 71.4958 7.396 71.8678 8.128L71.9518 7.132H72.9598V12.76C72.9598 14.608 71.8198 15.784 70.0198 15.784C68.4238 15.784 67.3318 14.884 67.1158 13.396H68.2438C68.3878 14.26 69.0358 14.764 70.0198 14.764C71.1238 14.764 71.8438 14.044 71.8438 12.928V11.752C71.4598 12.436 70.6918 12.844 69.7678 12.844C68.0998 12.844 67.0438 11.56 67.0438 9.916ZM68.1718 9.892C68.1718 10.996 68.8558 11.86 69.9598 11.86C71.0998 11.86 71.7958 11.044 71.7958 9.892C71.7958 8.764 71.1238 7.948 69.9718 7.948C68.8438 7.948 68.1718 8.812 68.1718 9.892ZM75.3557 12.988H74.2277V4.168H75.3557V8.032C75.7277 7.396 76.4357 6.964 77.3477 6.964C78.8477 6.964 79.5677 7.912 79.5677 9.412V13H78.4397V9.664C78.4397 8.476 77.8757 7.996 77.0357 7.996C75.9437 7.996 75.3557 8.788 75.3557 9.796V12.988Z" fill="white"/>
<path fill-rule="evenodd" clip-rule="evenodd" d="M7.92183 15.8006C6.88766 16.1652 5.4896 15.9183 5.4896 15.9183C1.15433 15.1809 -1.03992 10.3043 0.481905 6.28594C0.596321 5.89082 0.726853 5.63349 0.906596 5.27349C1.08634 4.91349 1.30771 4.61849 1.49817 4.31706C2.85347 2.275 5.10808 1.03001 7.51141 1C8.38638 1.02823 9.18783 1.162 9.91427 1.38291C13.705 2.66533 15.8371 6.83292 14.6895 10.7961C14.0524 12.9963 12.5361 14.6788 10.6539 15.5579C13.4175 13.3473 13.7578 9.98215 13.7728 9.14873C13.8447 5.14381 9.9162 1.90747 5.40239 3.77543C5.40239 3.77543 3.0303 4.90894 3.0303 7.38875C3.0303 8.67515 3.43292 10.824 5.7139 11.4375C6.42552 11.6289 7.30122 11.7156 8.15306 11.269C8.33887 11.1716 8.32573 10.9083 8.14307 10.8047L5.35454 9.22351C4.83498 8.87423 5.6059 8.82618 6.2177 8.72785C6.32637 8.71038 6.4336 8.69315 6.53316 8.67515L12.4599 7.70355C13.3642 7.48895 12.7272 11.0615 12.0352 12.2364C11.856 12.7082 10.3914 15.108 7.92183 15.8006Z" fill="white"/>
</svg>
