<svg width="82" height="47" viewBox="0 0 82 47" fill="none" xmlns="http://www.w3.org/2000/svg">
<path d="M0.358887 28.4311L1.01535 25.9523H12.4957L11.867 28.4311H8.00015V41.3085H5.31123V28.4311H0.358887Z" fill="white"/>
<path d="M16.7358 41.3085H14.173V33.6304V25.9523H16.7569V32.2754C17.4081 31.2671 18.6265 30.6159 20.118 30.6159C22.6809 30.6159 24.0253 32.2334 24.0253 34.9223V41.3085H21.4625V35.5316C21.4625 33.788 20.6012 32.9477 19.2987 32.9477C17.6812 32.9477 16.7358 34.0821 16.7358 35.6366V41.3085Z" fill="white"/>
<path d="M33.0556 30.889L32.3195 33.2628H32.1103C30.2617 33.2628 29.1063 34.2501 29.1063 36.2668V41.3085H26.5434V30.952H29.1063V32.4645C29.5474 31.4352 30.5347 30.7419 31.9212 30.7419C32.2783 30.7419 32.6355 30.7839 33.0556 30.889Z" fill="white"/>
<path d="M33.8324 36.0987C33.8324 32.8636 36.1642 30.6369 39.3783 30.6369C42.5924 30.6369 44.9241 32.8636 44.9241 36.0987C44.9241 39.3338 42.5924 41.5606 39.3783 41.5606C36.1642 41.5606 33.8324 39.3338 33.8324 36.0987ZM36.3953 36.0987C36.3953 37.9894 37.6137 39.2708 39.3783 39.2708C41.1429 39.2708 42.3613 37.9894 42.3613 36.0987C42.3613 34.2081 41.1429 32.9267 39.3783 32.9267C37.6137 32.9267 36.3953 34.2081 36.3953 36.0987Z" fill="white"/>
<path d="M53.7468 30.931H56.3097V41.3085H53.7468V39.922C53.1166 40.9094 51.7721 41.5816 50.3857 41.5816C47.9909 41.5816 46.5834 39.9641 46.5834 37.4222V30.931H49.1463V36.5189C49.1463 38.4936 49.9235 39.2918 51.352 39.2918C52.9696 39.2918 53.7468 38.3465 53.7468 36.3718V30.931Z" fill="white"/>
<path d="M58.3686 35.8887C58.3686 32.8636 60.3432 30.5949 63.3052 30.5949C64.8598 30.5949 66.0782 31.2461 66.6874 32.3595V30.931H69.2082V40.7833C69.2082 44.2495 67.1285 46.4133 63.7674 46.4133C60.7844 46.4133 58.7467 44.7117 58.4316 41.9387H60.9945C61.1625 43.2832 62.1919 44.0815 63.7674 44.0815C65.532 44.0815 66.6664 42.9681 66.6664 41.2455V39.5229C66.0152 40.4892 64.7337 41.0984 63.2422 41.0984C60.3012 41.0984 58.3686 38.8927 58.3686 35.8887ZM60.9524 35.8257C60.9524 37.5692 62.0658 38.8717 63.7464 38.8717C65.511 38.8717 66.6034 37.6323 66.6034 35.8257C66.6034 34.0611 65.532 32.8426 63.7464 32.8426C62.0448 32.8426 60.9524 34.1241 60.9524 35.8257Z" fill="white"/>
<path d="M74.4234 41.3085H71.8606V25.6792H74.4444V32.2754C75.0957 31.2671 76.3141 30.6159 77.8056 30.6159C80.3685 30.6159 81.7129 32.2334 81.7129 34.9223V41.3085H79.15V35.5316C79.15 33.788 78.2887 32.9477 76.9863 32.9477C75.3688 32.9477 74.4234 34.0821 74.4234 35.6366V41.3085Z" fill="white"/>
<path d="M29.6271 5.901C26.581 5.901 24.8374 8.10675 24.8374 11.4259C24.8374 14.85 26.8121 16.7197 29.6481 16.7197C32.316 16.7197 33.9335 15.2492 33.9335 12.7913V12.7283H28.5872L29.2909 10.3545H36.4334V20.438H33.9965V17.2239C33.1563 18.4003 31.4127 19.2195 29.333 19.2195C25.0265 19.2195 22.0225 16.0895 22.0225 11.3629C22.0225 6.69927 25.0685 3.38014 29.6901 3.38014C33.1983 3.38014 35.9082 5.41783 36.3493 8.5479H33.5134C33.0302 6.74128 31.4757 5.901 29.6271 5.901Z" fill="white"/>
<path d="M41.5429 18.9885H39.001V3.35913H41.5429V18.9885Z" fill="white"/>
<path d="M43.6221 13.7787C43.6221 10.5436 45.9539 8.31682 49.168 8.31682C52.3821 8.31682 54.7139 10.5436 54.7139 13.7787C54.7139 17.0138 52.3821 19.2405 49.168 19.2405C45.9539 19.2405 43.6221 17.0138 43.6221 13.7787ZM46.185 13.7787C46.185 15.6693 47.4034 16.9508 49.168 16.9508C50.9326 16.9508 52.151 15.6693 52.151 13.7787C52.151 11.888 50.9326 10.6066 49.168 10.6066C47.4034 10.6066 46.185 11.888 46.185 13.7787Z" fill="white"/>
<path d="M59.2872 18.9885H56.7453V3.35913H59.3082V10.1234C59.9804 8.96804 61.3669 8.2748 62.9424 8.2748C65.9044 8.2748 67.711 10.5856 67.711 13.8627C67.711 17.0558 65.7574 19.2615 62.7744 19.2615C61.2198 19.2615 59.8964 18.5683 59.2872 17.3709V18.9885ZM59.3292 13.7577C59.3292 15.6273 60.4846 16.9087 62.2492 16.9087C64.0558 16.9087 65.1272 15.6063 65.1272 13.7577C65.1272 11.909 64.0558 10.5856 62.2492 10.5856C60.4846 10.5856 59.3292 11.888 59.3292 13.7577Z" fill="white"/>
<path d="M74.3943 19.2615C71.3062 19.2615 69.1425 17.0138 69.1425 13.7997C69.1425 10.5436 71.2642 8.29581 74.3102 8.29581C77.4193 8.29581 79.394 10.3755 79.394 13.6106V14.3879L71.5793 14.4089C71.7684 16.2365 72.7347 17.1608 74.4363 17.1608C75.8438 17.1608 76.7681 16.6146 77.0622 15.6273H79.436C78.9948 17.8961 77.1042 19.2615 74.3943 19.2615ZM74.3313 10.3965C72.8187 10.3965 71.8944 11.2158 71.6423 12.7703H76.8521C76.8521 11.3418 75.8648 10.3965 74.3313 10.3965Z" fill="white"/>
<path fill-rule="evenodd" clip-rule="evenodd" d="M8.89304 1.55332C4.59872 1.55332 1.11748 4.81745 1.11748 8.84396C1.11748 12.8705 4.59872 16.1346 8.89304 16.1346C13.1874 16.1346 16.6686 12.8705 16.6686 8.84396C16.6686 4.81745 13.1874 1.55332 8.89304 1.55332ZM0.358887 8.84396C0.358887 4.42462 4.17976 0.842041 8.89304 0.842041C13.6063 0.842041 17.4272 4.42462 17.4272 8.84396C17.4272 13.2633 13.6063 16.8459 8.89304 16.8459C4.17976 16.8459 0.358887 13.2633 0.358887 8.84396Z" fill="white"/>
<path fill-rule="evenodd" clip-rule="evenodd" d="M16.9256 7.69332C17.0797 7.82642 17.0895 8.05141 16.9475 8.19585L12.0824 13.1464C11.9724 13.2584 11.7985 13.2922 11.65 13.2306L7.28889 11.4208L3.21083 13.7428C3.03178 13.8448 2.79849 13.7913 2.68976 13.6234C2.58103 13.4555 2.63803 13.2368 2.81708 13.1349L7.06442 10.7165C7.17047 10.6561 7.30133 10.6482 7.41479 10.6953L11.7086 12.4771L16.3897 7.71386C16.5316 7.56942 16.7716 7.56022 16.9256 7.69332Z" fill="white"/>
<path fill-rule="evenodd" clip-rule="evenodd" d="M15.7915 4.15094C15.9436 4.286 15.9502 4.51109 15.8061 4.6537L10.8058 9.60422C10.6964 9.71254 10.5266 9.74532 10.3804 9.68632L5.8891 7.8729L1.68972 10.1993C1.50937 10.2992 1.27678 10.2432 1.17022 10.074C1.06366 9.90495 1.12348 9.68686 1.30383 9.58695L5.66915 7.16859C5.77342 7.11082 5.90086 7.10322 6.0121 7.14814L10.4372 8.93481L15.2553 4.16461C15.3994 4.022 15.6394 4.01588 15.7915 4.15094Z" fill="white"/>
<path fill-rule="evenodd" clip-rule="evenodd" d="M0 8.8437C0 4.23857 3.9815 0.505371 8.89294 0.505371C13.8044 0.505371 17.7859 4.23857 17.7859 8.8437C17.7859 13.4488 13.8044 17.182 8.89294 17.182C3.9815 17.182 0 13.4488 0 8.8437ZM8.89294 1.17819C4.37781 1.17819 0.717569 4.61015 0.717569 8.8437C0.717569 9.15071 0.736818 9.4535 0.774246 9.75108C0.781622 9.71809 0.791549 9.68562 0.80395 9.65395C0.773966 9.38771 0.758592 9.11739 0.758592 8.8437C0.758592 4.6314 4.40046 1.21665 8.89294 1.21665C11.3604 1.21665 13.5712 2.24676 15.063 3.87335C15.0737 3.86516 15.0845 3.8573 15.0955 3.84975C13.5962 2.21412 11.3736 1.17819 8.89294 1.17819ZM15.9611 4.98914C16.3998 5.69484 16.7217 6.47219 16.902 7.29792C16.8872 7.29331 16.8724 7.28915 16.8574 7.28545C16.678 6.4752 16.3615 5.71204 15.9317 5.01825L15.9611 4.98914ZM15.5319 4.43558L15.5455 4.42212C15.5533 4.41441 15.5529 4.40224 15.5447 4.39493L15.5485 4.39116L15.5447 4.39493C15.5365 4.38763 15.5235 4.38796 15.5157 4.39567L15.5076 4.40368C15.5158 4.41429 15.5238 4.42493 15.5319 4.43558ZM15.0042 4.90212C15.0121 4.91292 15.02 4.92374 15.0279 4.93458L10.5452 9.37264C10.5393 9.3785 10.5301 9.38027 10.5222 9.37708L6.03089 7.56366C5.92567 7.52117 5.80512 7.52836 5.70648 7.583L1.55814 9.88116C1.55595 9.86747 1.55381 9.85377 1.55171 9.84005L5.85155 7.45796C5.85719 7.45484 5.86408 7.45443 5.8701 7.45686L10.2952 9.24353C10.4334 9.29934 10.5941 9.26833 10.6976 9.16587L15.0042 4.90212ZM14.563 4.36049C13.2025 2.84929 11.1672 1.88947 8.89294 1.88947C4.79677 1.88947 1.47616 5.00298 1.47616 8.8437C1.47616 8.92874 1.47779 9.01343 1.48102 9.09773L5.48654 6.8787C5.68946 6.76628 5.93743 6.7515 6.1539 6.8389L10.3489 8.53266L14.563 4.36049ZM0.909165 10.3119C0.892021 10.2907 0.875998 10.2684 0.86122 10.2449C0.857493 10.239 0.85387 10.2331 0.850352 10.2271C1.07442 11.3798 1.57344 12.4425 2.28136 13.3534C2.28374 13.3355 2.28687 13.3177 2.29072 13.3C1.61767 12.4249 1.13765 11.4106 0.909165 10.3119ZM2.7692 12.7682C2.28476 12.1049 1.91971 11.3589 1.70307 10.5575C1.761 10.5416 1.81778 10.5188 1.87212 10.4887L1.68961 10.1991L1.87212 10.4887L5.91454 8.24922L10.2384 9.99504C10.5228 10.1099 10.8534 10.0461 11.0662 9.83529L15.415 5.52975C15.759 6.12357 16.0133 6.76961 16.1612 7.45193C16.149 7.46271 16.1372 7.47395 16.1257 7.48564L11.6188 12.0717L7.5599 10.3874C7.3391 10.2958 7.08447 10.3112 6.87809 10.4287L2.7692 12.7682ZM3.23193 13.3369C3.22299 13.327 3.21407 13.3171 3.20518 13.3071L7.25054 11.0038C7.25628 11.0005 7.26335 11.0001 7.26949 11.0026L11.5633 12.7845C11.7038 12.8428 11.8683 12.8107 11.9724 12.7048L16.2884 8.31295C16.2899 8.33049 16.2912 8.34804 16.2925 8.36561L11.8185 12.9181C11.8125 12.9242 11.8031 12.926 11.7951 12.9227L7.43399 11.113C7.32666 11.0684 7.20288 11.0759 7.10256 11.133L3.23193 13.3369ZM3.02994 14.1306C3.01063 14.131 2.99135 14.1306 2.97214 14.1296C4.46127 15.5956 6.56331 16.5092 8.89294 16.5092C13.4081 16.5092 17.0683 13.0772 17.0683 8.8437C17.0683 8.75346 17.0666 8.66358 17.0633 8.57409L17.0237 8.61445C17.0261 8.69059 17.0273 8.76701 17.0273 8.8437C17.0273 13.056 13.3854 16.4707 8.89294 16.4707C6.58961 16.4707 4.50988 15.5731 3.02994 14.1306ZM16.2895 9.36156C16.0069 12.9604 12.8033 15.7979 8.89294 15.7979C6.8874 15.7979 5.06778 15.0516 3.73279 13.8389L7.31489 11.7993L11.5047 13.538C11.7937 13.6579 12.132 13.592 12.3462 13.3741L16.2895 9.36156Z" fill="white"/>
</svg>
