<svg width="108" height="22" viewBox="0 0 108 22" fill="none" xmlns="http://www.w3.org/2000/svg">
<path fill-rule="evenodd" clip-rule="evenodd" d="M11.6187 21.7076C10.1019 22.2423 8.05141 21.8801 8.05141 21.8801C1.69302 20.7987 -1.52521 13.6463 0.706794 7.75272C0.874604 7.1732 1.06605 6.79578 1.32967 6.26778C1.5933 5.73979 1.91798 5.30712 2.19732 4.86502C4.18509 1.87 7.49185 0.044017 11.0167 0C12.3 0.0413992 13.4755 0.237605 14.5409 0.561608C20.1007 2.44248 23.2278 8.55495 21.5446 14.3676C20.6102 17.5946 18.3863 20.0623 15.6257 21.3515C19.679 18.1094 20.1782 13.1738 20.2001 11.9515C20.3055 6.07758 14.5438 1.33095 7.9235 4.07063C7.9235 4.07063 4.44445 5.73311 4.44445 9.37016C4.44444 11.2569 5.03495 14.4085 8.38038 15.3083C9.42409 15.5891 10.7085 15.7163 11.9578 15.0612C12.2303 14.9183 12.2111 14.5321 11.9432 14.3802L7.85333 12.0611C7.09131 11.5489 8.22198 11.4784 9.11929 11.3342C9.27868 11.3086 9.43595 11.2833 9.58197 11.2569L18.2745 9.83187C19.6008 9.51713 18.6665 14.7569 17.6517 16.48C17.3887 17.172 15.2407 20.6917 11.6187 21.7076Z" fill="black"/>
<path d="M27.8825 16.3293H26V5.09069H27.8825V16.3293Z" fill="black"/>
<path d="M28.9557 12.5831C28.9557 10.2568 30.6827 8.65563 33.0631 8.65563C35.4435 8.65563 37.1705 10.2568 37.1705 12.5831C37.1705 14.9094 35.4435 16.5106 33.0631 16.5106C30.6827 16.5106 28.9557 14.9094 28.9557 12.5831ZM30.8538 12.5831C30.8538 13.9426 31.7562 14.8641 33.0631 14.8641C34.37 14.8641 35.2724 13.9426 35.2724 12.5831C35.2724 11.2236 34.37 10.3021 33.0631 10.3021C31.7562 10.3021 30.8538 11.2236 30.8538 12.5831Z" fill="black"/>
<path d="M39.9663 16.3293H38.2082V5.09069H40.1063V9.95472C40.6042 9.12391 41.6311 8.62542 42.7979 8.62542C44.9916 8.62542 46.3296 10.287 46.3296 12.6435C46.3296 14.9396 44.8827 16.5257 42.6735 16.5257C41.5221 16.5257 40.542 16.0272 40.0908 15.1662L39.9663 16.3293ZM40.1219 12.568C40.1219 13.9124 40.9776 14.8339 42.2845 14.8339C43.6225 14.8339 44.416 13.8973 44.416 12.568C44.416 11.2387 43.6225 10.287 42.2845 10.287C40.9776 10.287 40.1219 11.2236 40.1219 12.568Z" fill="black"/>
<path d="M50.8126 16.5257C48.5256 16.5257 46.9231 14.9094 46.9231 12.5982C46.9231 10.2568 48.4944 8.64052 50.7504 8.64052C53.053 8.64052 54.5155 10.136 54.5155 12.4623V13.0212L48.7278 13.0363C48.8678 14.3505 49.5835 15.0151 50.8437 15.0151C51.8861 15.0151 52.5707 14.6224 52.7885 13.9124H54.5466C54.2199 15.5438 52.8196 16.5257 50.8126 16.5257ZM50.7659 10.1511C49.6457 10.1511 48.9612 10.7402 48.7745 11.858H52.6329C52.6329 10.8308 51.9017 10.1511 50.7659 10.1511Z" fill="black"/>
<path d="M58.1057 16.3293H56.2076V8.77645H54.7295V7.51761H56.2076V5H58.1057V7.51761H59.5993V8.77645H58.1057V16.3293Z" fill="black"/>
<path d="M62.2106 16.3293H60.3125V5.09069H62.2262V9.83387C62.7085 9.1088 63.6109 8.64052 64.7155 8.64052C66.6136 8.64052 67.6093 9.80366 67.6093 11.7372V16.3293H65.7112V12.1753C65.7112 10.9215 65.0733 10.3173 64.1087 10.3173C62.9107 10.3173 62.2106 11.133 62.2106 12.2508V16.3293Z" fill="black"/>
<path d="M73.8306 8.8369V10.5438H73.1304C71.7613 10.5438 70.9056 11.2538 70.9056 12.704V16.3293H69.0075V8.88222H70.7967L70.9056 9.96982C71.2323 9.22965 71.9636 8.73116 72.9904 8.73116C73.2549 8.73116 73.5194 8.76137 73.8306 8.8369Z" fill="black"/>
<path d="M73.9391 12.5831C73.9391 10.2568 75.6661 8.65563 78.0465 8.65563C80.4269 8.65563 82.1539 10.2568 82.1539 12.5831C82.1539 14.9094 80.4269 16.5106 78.0465 16.5106C75.6661 16.5106 73.9391 14.9094 73.9391 12.5831ZM75.8372 12.5831C75.8372 13.9426 76.7396 14.8641 78.0465 14.8641C79.3534 14.8641 80.2557 13.9426 80.2557 12.5831C80.2557 11.2236 79.3534 10.3021 78.0465 10.3021C76.7396 10.3021 75.8372 11.2236 75.8372 12.5831Z" fill="black"/>
<path d="M88.2213 8.86711H90.1194V16.3293H88.3614L88.2213 15.3323C87.7546 16.0423 86.7589 16.5257 85.732 16.5257C83.9584 16.5257 82.916 15.3626 82.916 13.5348V8.86711H84.8141V12.8852C84.8141 14.3052 85.3897 14.8792 86.4477 14.8792C87.6457 14.8792 88.2213 14.1994 88.2213 12.7795V8.86711Z" fill="black"/>
<path d="M91.1775 12.4321C91.1775 10.2568 92.64 8.62542 94.8337 8.62542C95.985 8.62542 96.8874 9.0937 97.3386 9.8943L97.4475 8.86711H99.2056V15.9517C99.2056 18.4441 97.6653 20 95.176 20C92.9667 20 91.4576 18.7764 91.2242 16.7825H93.1223C93.2468 17.7493 94.0091 18.3233 95.176 18.3233C96.4829 18.3233 97.323 17.5227 97.323 16.284V15.0453C96.8407 15.7402 95.8917 16.1783 94.787 16.1783C92.6089 16.1783 91.1775 14.5922 91.1775 12.4321ZM93.0912 12.3867C93.0912 13.6405 93.9158 14.5771 95.1604 14.5771C96.4673 14.5771 97.2764 13.6858 97.2764 12.3867C97.2764 11.1179 96.4829 10.2417 95.1604 10.2417C93.9002 10.2417 93.0912 11.1632 93.0912 12.3867Z" fill="black"/>
<path d="M102.601 16.3293H100.703V5.09069H102.617V9.83387C103.099 9.1088 104.002 8.64052 105.106 8.64052C107.004 8.64052 108 9.80366 108 11.7372V16.3293H106.102V12.1753C106.102 10.9215 105.464 10.3173 104.499 10.3173C103.301 10.3173 102.601 11.133 102.601 12.2508V16.3293Z" fill="black"/>
</svg>
